<mxfile host="app.diagrams.net" modified="2024-05-04T02:33:55.435Z" agent="Mozilla/5.0 (X11; Linux x86_64) AppleWebKit/537.36 (KHTML, like Gecko) Chrome/124.0.0.0 Safari/537.36" etag="dyy_kU1Z7tuU-ezl_1HI" version="24.3.1" type="github">
  <diagram name="Página-1" id="S5yT-SRMCgnwhj5iHbOD">
    <mxGraphModel dx="1431" dy="589" grid="1" gridSize="10" guides="1" tooltips="1" connect="1" arrows="1" fold="1" page="1" pageScale="1" pageWidth="827" pageHeight="1169" math="0" shadow="0">
      <root>
        <mxCell id="0" />
        <mxCell id="1" parent="0" />
        <mxCell id="2ardp5klqFMFP00VOyrP-15" value="" style="edgeStyle=orthogonalEdgeStyle;rounded=0;orthogonalLoop=1;jettySize=auto;html=1;" edge="1" parent="1" source="2ardp5klqFMFP00VOyrP-1" target="2ardp5klqFMFP00VOyrP-13">
          <mxGeometry relative="1" as="geometry" />
        </mxCell>
        <mxCell id="2ardp5klqFMFP00VOyrP-1" value="Usuário faz login" style="rounded=1;whiteSpace=wrap;html=1;" vertex="1" parent="1">
          <mxGeometry x="80" y="90" width="120" height="60" as="geometry" />
        </mxCell>
        <mxCell id="2ardp5klqFMFP00VOyrP-17" value="" style="edgeStyle=orthogonalEdgeStyle;rounded=0;orthogonalLoop=1;jettySize=auto;html=1;" edge="1" parent="1" source="2ardp5klqFMFP00VOyrP-2" target="2ardp5klqFMFP00VOyrP-6">
          <mxGeometry relative="1" as="geometry" />
        </mxCell>
        <mxCell id="2ardp5klqFMFP00VOyrP-2" value="Crawler pega notícias" style="whiteSpace=wrap;html=1;rounded=1;" vertex="1" parent="1">
          <mxGeometry x="400" y="90" width="120" height="60" as="geometry" />
        </mxCell>
        <mxCell id="2ardp5klqFMFP00VOyrP-4" value="Sistema de recomendação recomenda 4 notícias para cada notícia parecida" style="whiteSpace=wrap;html=1;rounded=1;arcSize=22;" vertex="1" parent="1">
          <mxGeometry x="560" y="200" width="120" height="90" as="geometry" />
        </mxCell>
        <mxCell id="2ardp5klqFMFP00VOyrP-21" value="" style="edgeStyle=orthogonalEdgeStyle;rounded=0;orthogonalLoop=1;jettySize=auto;html=1;" edge="1" parent="1" source="2ardp5klqFMFP00VOyrP-6" target="2ardp5klqFMFP00VOyrP-4">
          <mxGeometry relative="1" as="geometry" />
        </mxCell>
        <mxCell id="2ardp5klqFMFP00VOyrP-6" value="São escolhidos 9 notícias mais recentes (3 de cada jornal)" style="whiteSpace=wrap;html=1;rounded=1;" vertex="1" parent="1">
          <mxGeometry x="560" y="90" width="120" height="60" as="geometry" />
        </mxCell>
        <mxCell id="2ardp5klqFMFP00VOyrP-9" value="&lt;font style=&quot;font-size: 23px;&quot;&gt;PÁGINA INICIAL&amp;nbsp;&lt;/font&gt;" style="text;html=1;align=center;verticalAlign=middle;resizable=0;points=[];autosize=1;strokeColor=none;fillColor=none;" vertex="1" parent="1">
          <mxGeometry x="314" y="35" width="200" height="40" as="geometry" />
        </mxCell>
        <mxCell id="2ardp5klqFMFP00VOyrP-16" value="" style="edgeStyle=orthogonalEdgeStyle;rounded=0;orthogonalLoop=1;jettySize=auto;html=1;" edge="1" parent="1" source="2ardp5klqFMFP00VOyrP-13" target="2ardp5klqFMFP00VOyrP-2">
          <mxGeometry relative="1" as="geometry" />
        </mxCell>
        <mxCell id="2ardp5klqFMFP00VOyrP-13" value="Página home é aberta" style="rounded=1;whiteSpace=wrap;html=1;" vertex="1" parent="1">
          <mxGeometry x="240" y="90" width="120" height="60" as="geometry" />
        </mxCell>
        <mxCell id="2ardp5klqFMFP00VOyrP-22" value="&lt;font style=&quot;font-size: 23px;&quot;&gt;USUÁRIO CLICA NA NOTÍCIA&lt;/font&gt;" style="text;html=1;align=center;verticalAlign=middle;resizable=0;points=[];autosize=1;strokeColor=none;fillColor=none;" vertex="1" parent="1">
          <mxGeometry x="244" y="320" width="340" height="40" as="geometry" />
        </mxCell>
        <mxCell id="2ardp5klqFMFP00VOyrP-25" value="" style="edgeStyle=orthogonalEdgeStyle;rounded=0;orthogonalLoop=1;jettySize=auto;html=1;" edge="1" parent="1" source="2ardp5klqFMFP00VOyrP-23" target="2ardp5klqFMFP00VOyrP-24">
          <mxGeometry relative="1" as="geometry">
            <Array as="points">
              <mxPoint x="240" y="460" />
              <mxPoint x="240" y="430" />
            </Array>
          </mxGeometry>
        </mxCell>
        <mxCell id="2ardp5klqFMFP00VOyrP-27" value="" style="edgeStyle=orthogonalEdgeStyle;rounded=0;orthogonalLoop=1;jettySize=auto;html=1;exitX=1;exitY=0.5;exitDx=0;exitDy=0;" edge="1" parent="1">
          <mxGeometry relative="1" as="geometry">
            <mxPoint x="190" y="480" as="sourcePoint" />
            <mxPoint x="294" y="520" as="targetPoint" />
            <Array as="points">
              <mxPoint x="190" y="510" />
              <mxPoint x="230" y="510" />
              <mxPoint x="230" y="520" />
            </Array>
          </mxGeometry>
        </mxCell>
        <mxCell id="2ardp5klqFMFP00VOyrP-23" value="Usuário clica em uma notícia" style="rounded=1;whiteSpace=wrap;html=1;" vertex="1" parent="1">
          <mxGeometry x="70" y="430" width="120" height="60" as="geometry" />
        </mxCell>
        <mxCell id="2ardp5klqFMFP00VOyrP-24" value="Usuário é redirecionado para a URL da notícia" style="whiteSpace=wrap;html=1;rounded=1;" vertex="1" parent="1">
          <mxGeometry x="294" y="370" width="120" height="60" as="geometry" />
        </mxCell>
        <mxCell id="2ardp5klqFMFP00VOyrP-26" value="Notícia é salva e consta na aba &quot;Salvos&quot;" style="whiteSpace=wrap;html=1;rounded=1;" vertex="1" parent="1">
          <mxGeometry x="294" y="480" width="120" height="60" as="geometry" />
        </mxCell>
        <mxCell id="2ardp5klqFMFP00VOyrP-29" value="Clica em visitar" style="text;html=1;align=center;verticalAlign=middle;whiteSpace=wrap;rounded=0;" vertex="1" parent="1">
          <mxGeometry x="210" y="390" width="60" height="30" as="geometry" />
        </mxCell>
        <mxCell id="2ardp5klqFMFP00VOyrP-30" value="Clica em salvar" style="text;html=1;align=center;verticalAlign=middle;whiteSpace=wrap;rounded=0;" vertex="1" parent="1">
          <mxGeometry x="210" y="470" width="60" height="30" as="geometry" />
        </mxCell>
        <mxCell id="2ardp5klqFMFP00VOyrP-31" value="&lt;font style=&quot;font-size: 23px;&quot;&gt;PARA VOCÊ&lt;/font&gt;" style="text;html=1;align=center;verticalAlign=middle;resizable=0;points=[];autosize=1;strokeColor=none;fillColor=none;" vertex="1" parent="1">
          <mxGeometry x="345" y="585" width="150" height="40" as="geometry" />
        </mxCell>
        <mxCell id="2ardp5klqFMFP00VOyrP-34" value="" style="edgeStyle=orthogonalEdgeStyle;rounded=0;orthogonalLoop=1;jettySize=auto;html=1;" edge="1" parent="1" source="2ardp5klqFMFP00VOyrP-32" target="2ardp5klqFMFP00VOyrP-33">
          <mxGeometry relative="1" as="geometry" />
        </mxCell>
        <mxCell id="2ardp5klqFMFP00VOyrP-32" value="Usuário clica no botão &quot;Para você&quot;" style="rounded=1;whiteSpace=wrap;html=1;" vertex="1" parent="1">
          <mxGeometry x="110" y="630" width="120" height="60" as="geometry" />
        </mxCell>
        <mxCell id="2ardp5klqFMFP00VOyrP-33" value="Mensagem &quot;Visite alguma notícia para podermos recomendar notícias semelhantes para você&quot;" style="whiteSpace=wrap;html=1;rounded=1;" vertex="1" parent="1">
          <mxGeometry x="110" y="770" width="130" height="90" as="geometry" />
        </mxCell>
        <mxCell id="2ardp5klqFMFP00VOyrP-36" value="Usuário não visitou nenhuma noticia" style="text;html=1;align=center;verticalAlign=middle;whiteSpace=wrap;rounded=0;" vertex="1" parent="1">
          <mxGeometry x="100" y="720" width="60" height="30" as="geometry" />
        </mxCell>
        <mxCell id="2ardp5klqFMFP00VOyrP-40" value="Página com notícias semelhantes as que foram clicadas" style="rounded=1;whiteSpace=wrap;html=1;" vertex="1" parent="1">
          <mxGeometry x="690" y="630" width="120" height="60" as="geometry" />
        </mxCell>
        <mxCell id="2ardp5klqFMFP00VOyrP-41" value="Usuário visitou alguma noticia" style="text;html=1;align=center;verticalAlign=middle;whiteSpace=wrap;rounded=0;" vertex="1" parent="1">
          <mxGeometry x="250" y="610" width="60" height="30" as="geometry" />
        </mxCell>
        <mxCell id="2ardp5klqFMFP00VOyrP-45" value="" style="edgeStyle=orthogonalEdgeStyle;rounded=0;orthogonalLoop=1;jettySize=auto;html=1;entryX=0;entryY=0.5;entryDx=0;entryDy=0;" edge="1" parent="1" source="2ardp5klqFMFP00VOyrP-32" target="2ardp5klqFMFP00VOyrP-46">
          <mxGeometry relative="1" as="geometry">
            <mxPoint x="230" y="660" as="sourcePoint" />
            <mxPoint x="560" y="660" as="targetPoint" />
            <Array as="points" />
          </mxGeometry>
        </mxCell>
        <mxCell id="2ardp5klqFMFP00VOyrP-48" value="" style="edgeStyle=orthogonalEdgeStyle;rounded=0;orthogonalLoop=1;jettySize=auto;html=1;" edge="1" parent="1" source="2ardp5klqFMFP00VOyrP-44" target="2ardp5klqFMFP00VOyrP-40">
          <mxGeometry relative="1" as="geometry" />
        </mxCell>
        <mxCell id="2ardp5klqFMFP00VOyrP-44" value="Sistema de recomendação recomenda notícias semelhantes baseadas no tema" style="rounded=1;whiteSpace=wrap;html=1;" vertex="1" parent="1">
          <mxGeometry x="510" y="625" width="130" height="70" as="geometry" />
        </mxCell>
        <mxCell id="2ardp5klqFMFP00VOyrP-47" value="" style="edgeStyle=orthogonalEdgeStyle;rounded=0;orthogonalLoop=1;jettySize=auto;html=1;" edge="1" parent="1" source="2ardp5klqFMFP00VOyrP-46" target="2ardp5klqFMFP00VOyrP-44">
          <mxGeometry relative="1" as="geometry" />
        </mxCell>
        <mxCell id="2ardp5klqFMFP00VOyrP-46" value="Crawler pega as notícias mais recentes" style="rounded=1;whiteSpace=wrap;html=1;" vertex="1" parent="1">
          <mxGeometry x="325" y="630" width="120" height="60" as="geometry" />
        </mxCell>
        <mxCell id="2ardp5klqFMFP00VOyrP-49" value="&lt;font style=&quot;font-size: 23px;&quot;&gt;SALVOS&lt;/font&gt;" style="text;html=1;align=center;verticalAlign=middle;resizable=0;points=[];autosize=1;strokeColor=none;fillColor=none;" vertex="1" parent="1">
          <mxGeometry x="359" y="870" width="110" height="40" as="geometry" />
        </mxCell>
        <mxCell id="2ardp5klqFMFP00VOyrP-52" value="" style="edgeStyle=orthogonalEdgeStyle;rounded=0;orthogonalLoop=1;jettySize=auto;html=1;" edge="1" parent="1" source="2ardp5klqFMFP00VOyrP-50" target="2ardp5klqFMFP00VOyrP-51">
          <mxGeometry relative="1" as="geometry" />
        </mxCell>
        <mxCell id="2ardp5klqFMFP00VOyrP-62" value="" style="edgeStyle=orthogonalEdgeStyle;rounded=0;orthogonalLoop=1;jettySize=auto;html=1;" edge="1" parent="1" source="2ardp5klqFMFP00VOyrP-50" target="2ardp5klqFMFP00VOyrP-61">
          <mxGeometry relative="1" as="geometry" />
        </mxCell>
        <mxCell id="2ardp5klqFMFP00VOyrP-50" value="Verifica se o usuário está logado" style="rounded=1;whiteSpace=wrap;html=1;" vertex="1" parent="1">
          <mxGeometry x="100" y="950" width="120" height="60" as="geometry" />
        </mxCell>
        <mxCell id="2ardp5klqFMFP00VOyrP-54" value="" style="edgeStyle=orthogonalEdgeStyle;rounded=0;orthogonalLoop=1;jettySize=auto;html=1;" edge="1" parent="1" source="2ardp5klqFMFP00VOyrP-51" target="2ardp5klqFMFP00VOyrP-53">
          <mxGeometry relative="1" as="geometry" />
        </mxCell>
        <mxCell id="2ardp5klqFMFP00VOyrP-56" value="" style="edgeStyle=orthogonalEdgeStyle;rounded=0;orthogonalLoop=1;jettySize=auto;html=1;entryX=0;entryY=0.5;entryDx=0;entryDy=0;" edge="1" parent="1" source="2ardp5klqFMFP00VOyrP-51" target="2ardp5klqFMFP00VOyrP-55">
          <mxGeometry relative="1" as="geometry">
            <Array as="points">
              <mxPoint x="400" y="1060" />
              <mxPoint x="520" y="1060" />
            </Array>
          </mxGeometry>
        </mxCell>
        <mxCell id="2ardp5klqFMFP00VOyrP-51" value="Verifica se há notícias salvas" style="whiteSpace=wrap;html=1;rounded=1;" vertex="1" parent="1">
          <mxGeometry x="320" y="950" width="120" height="60" as="geometry" />
        </mxCell>
        <mxCell id="2ardp5klqFMFP00VOyrP-53" value="Mostra notícias salvas" style="whiteSpace=wrap;html=1;rounded=1;" vertex="1" parent="1">
          <mxGeometry x="520" y="950" width="120" height="60" as="geometry" />
        </mxCell>
        <mxCell id="2ardp5klqFMFP00VOyrP-55" value="Mensagem &quot;Você ainda não salvou nenhuma notícia&quot;" style="whiteSpace=wrap;html=1;rounded=1;" vertex="1" parent="1">
          <mxGeometry x="520" y="1040" width="120" height="60" as="geometry" />
        </mxCell>
        <mxCell id="2ardp5klqFMFP00VOyrP-58" value="Usuário está logado" style="text;html=1;align=center;verticalAlign=middle;whiteSpace=wrap;rounded=0;" vertex="1" parent="1">
          <mxGeometry x="230" y="940" width="80" height="30" as="geometry" />
        </mxCell>
        <mxCell id="2ardp5klqFMFP00VOyrP-59" value="Usuário tem noticias salvas" style="text;html=1;align=center;verticalAlign=middle;whiteSpace=wrap;rounded=0;" vertex="1" parent="1">
          <mxGeometry x="440" y="940" width="80" height="30" as="geometry" />
        </mxCell>
        <mxCell id="2ardp5klqFMFP00VOyrP-60" value="Usuário não tem noticias salvas" style="text;html=1;align=center;verticalAlign=middle;whiteSpace=wrap;rounded=0;" vertex="1" parent="1">
          <mxGeometry x="430" y="1020" width="80" height="30" as="geometry" />
        </mxCell>
        <mxCell id="2ardp5klqFMFP00VOyrP-65" value="" style="edgeStyle=orthogonalEdgeStyle;rounded=0;orthogonalLoop=1;jettySize=auto;html=1;" edge="1" parent="1" source="2ardp5klqFMFP00VOyrP-61" target="2ardp5klqFMFP00VOyrP-64">
          <mxGeometry relative="1" as="geometry" />
        </mxCell>
        <mxCell id="2ardp5klqFMFP00VOyrP-61" value="Mensagem &quot;Faça login para poder ver seus itens salvos&quot;" style="whiteSpace=wrap;html=1;rounded=1;" vertex="1" parent="1">
          <mxGeometry x="100" y="1085" width="120" height="60" as="geometry" />
        </mxCell>
        <mxCell id="2ardp5klqFMFP00VOyrP-63" value="Usuário não está logado" style="text;html=1;align=center;verticalAlign=middle;whiteSpace=wrap;rounded=0;" vertex="1" parent="1">
          <mxGeometry x="170" y="1030" width="80" height="30" as="geometry" />
        </mxCell>
        <mxCell id="2ardp5klqFMFP00VOyrP-64" value="Botão para fazer login" style="whiteSpace=wrap;html=1;rounded=1;" vertex="1" parent="1">
          <mxGeometry x="250" y="1085" width="120" height="60" as="geometry" />
        </mxCell>
      </root>
    </mxGraphModel>
  </diagram>
</mxfile>
